# xmcd CD database file
#
# Track frame offsets:
#	150
#	25737
#	44032
#	62077
#	82220
#	102120
#	129025
#	147507
#	164780
#	190975
#	207482
#	225162
#	244240
#
# Disc length: 3763 seconds
#
# Revision: 19
# Processed by: cddbd v1.5.1PL2 Copyright (c) Steve Scherf et al.
# Submitted via: CDex 1.70beta1
#
DISCID=ba0eb10d
DTITLE=JAMIROQUAI - JAMIROQUAI   TRAVELLING WITHOUT MOVING
DYEAR=1996
DGENRE=Jazz
TTITLE0=VIRTUAL INSANITY
TTITLE1=COSMIC GIRL
TTITLE2=USE THE FORCE
TTITLE3=EVERYDAY
TTITLE4=ALRIGHT
TTITLE5=HIGH TIMES
TTITLE6=DRIFTING ALONG
TTITLE7=DIDJERAMA
TTITLE8=DIDJITAL VIBRATIONS
TTITLE9=TRAVELLING WITHOUT MOVING
TTITLE10=YOU ARE MY LOVE
TTITLE11=SPEND A LIFETIME
TTITLE12=FUNKTION (Ruff Mix)
EXTD=YEAR: 1996
EXTT0=
EXTT1=
EXTT2=
EXTT3=
EXTT4=
EXTT5=
EXTT6=
EXTT7=
EXTT8=
EXTT9=
EXTT10=
EXTT11=
EXTT12=
PLAYORDER=
